# xmcd
#
# Track frame offsets:
#  150
#  19234
#  34405
#  62090
#  85539
#  101331
#  124802
#  141362
#  158645
#  175019
#  194544
#
# Disc length: 2812 seconds
#
# Revision: 0
# Processed by: cddbd v1.5.2PL0 Copyright (c) Steve Scherf et al.
# Submitted via: Collectorz.com_Music_Collector 6.11
#
DISCID=8e0afa0b
DTITLE=Kiss - Symphony Alive IV [CD 1)
DYEAR=2003
DGENRE=Hard Rock
TTITLE0=Deuce (Live, 2003)
TTITLE1=Strutter (Live, 2003)
TTITLE2=Let Me Go Rock and Roll (Live, 2003)
TTITLE3=Lick It Up (Live, 2003)
TTITLE4=Calling Dr. Love (Live, 2003)
TTITLE5=Psycho Circus (Live, 2003)
TTITLE6=Beth (Live, 2003)
TTITLE7=Forever (Live, 2003)
TTITLE8=Goin' Blind (Live, 2003)
TTITLE9=Sure Know Something (Live, 2003)
TTITLE10=Shandi (Live, 2003)
EXTD=
EXTT0=
EXTT1=
EXTT2=
EXTT3=
EXTT4=
EXTT5=
EXTT6=
EXTT7=
EXTT8=
EXTT9=
EXTT10=
PLAYORDER=
